<?xml version="1.0" encoding="UTF-8" standalone="no"?>
<!DOCTYPE svg PUBLIC "-//W3C//DTD SVG 1.1//EN" "http://www.w3.org/Graphics/SVG/1.1/DTD/svg11.dtd">
<svg width="100%" height="100%" viewBox="0 0 18 18" version="1.1" xmlns="http://www.w3.org/2000/svg" xmlns:xlink="http://www.w3.org/1999/xlink" xml:space="preserve" xmlns:serif="http://www.serif.com/" style="fill-rule:evenodd;clip-rule:evenodd;stroke-linejoin:round;stroke-miterlimit:1.41421;">
    <g transform="matrix(1,0,0,1,-106.328,-131.724)">
        <g transform="matrix(1,0,0,1,12.6769,-3.56537)">
            <path d="M110.95,137.844C110.95,137.166 110.68,136.517 110.201,136.037C109.722,135.558 109.072,135.289 108.395,135.289C105.121,135.289 99.479,135.289 96.206,135.289C95.528,135.289 94.878,135.558 94.399,136.037C93.92,136.517 93.651,137.166 93.651,137.844C93.651,141.118 93.651,146.759 93.651,150.033C93.651,150.71 93.92,151.36 94.399,151.839C94.878,152.318 95.528,152.588 96.206,152.588C99.479,152.588 105.121,152.588 108.395,152.588C109.072,152.588 109.722,152.318 110.201,151.839C110.68,151.36 110.95,150.71 110.95,150.033C110.95,146.759 110.95,141.118 110.95,137.844ZM99.132,148.164C99.132,147.888 99.036,147.654 98.845,147.463C98.654,147.272 98.42,147.176 98.144,147.176C97.868,147.176 97.634,147.272 97.443,147.463C97.252,147.654 97.156,147.888 97.156,148.164C97.156,148.441 97.252,148.674 97.443,148.866C97.634,149.057 97.868,149.152 98.144,149.152C98.42,149.152 98.654,149.057 98.845,148.866C99.036,148.674 99.132,148.441 99.132,148.164ZM103.2,140.208C103.301,140.214 103.402,140.224 103.502,140.24C103.71,140.278 103.906,140.331 104.092,140.4C104.48,140.532 104.82,140.734 105.112,141.005L105.176,141.053L105.343,141.22L105.439,141.332L105.486,141.396L105.526,141.451C105.659,141.616 105.757,141.778 105.821,141.937C105.97,142.267 106.004,142.583 105.925,142.886C105.887,143.04 105.821,143.191 105.725,143.34C105.64,143.489 105.524,143.637 105.375,143.786L105.359,143.802L105.327,143.834L105.255,143.906L105.215,143.929C105.2,143.945 105.181,143.959 105.16,143.969C105.117,144.012 105.048,144.06 104.953,144.113C104.809,144.192 104.655,144.251 104.49,144.288C104.177,144.346 103.792,144.323 103.335,144.216C103.043,144.147 102.591,144.009 101.981,143.802L101.582,143.659C101.524,143.643 101.473,143.656 101.431,143.698L101.128,144.001L99.283,145.83C99.214,145.899 99.214,145.968 99.283,146.037L100.279,147.033C100.343,147.097 100.409,147.094 100.478,147.025L101.949,145.539C102.347,145.672 102.692,145.767 102.984,145.826C103.298,145.895 103.59,145.937 103.861,145.953C104.196,145.969 104.514,145.948 104.817,145.89C105.146,145.815 105.46,145.693 105.757,145.523C105.922,145.433 106.06,145.342 106.172,145.252C106.198,145.226 106.233,145.196 106.275,145.164L106.371,145.069L106.443,145.013L106.53,144.925C106.759,144.686 106.947,144.439 107.096,144.184C107.282,143.892 107.412,143.587 107.486,143.268C107.571,142.928 107.593,142.583 107.55,142.232C107.508,141.903 107.412,141.584 107.263,141.276C107.146,141.011 106.982,140.745 106.769,140.479L106.698,140.392L106.634,140.312L106.474,140.137L106.323,139.985L106.243,139.906L106.164,139.826C105.707,139.422 105.186,139.12 104.602,138.918C104.32,138.827 104.031,138.761 103.733,138.718C103.579,138.692 103.431,138.676 103.287,138.671C103.256,138.671 103.21,138.671 103.148,138.671C103.145,138.671 103.141,138.671 103.138,138.67C103.129,138.67 103.118,138.669 103.107,138.669C103.068,138.667 103.03,138.682 103.002,138.71C102.975,138.738 102.961,138.777 102.964,138.816C102.987,139.116 103.04,139.799 103.062,140.082C103.068,140.153 103.127,140.208 103.199,140.208C103.199,140.208 103.2,140.208 103.2,140.208Z" style="fill:#00b6dc;"/>
        </g>
    </g>
</svg>
