<?xml version="1.0" encoding="UTF-8" standalone="no"?>
<!DOCTYPE svg PUBLIC "-//W3C//DTD SVG 1.1//EN" "http://www.w3.org/Graphics/SVG/1.1/DTD/svg11.dtd">
<svg width="100%" height="100%" viewBox="0 0 106 18" version="1.1" xmlns="http://www.w3.org/2000/svg" xmlns:xlink="http://www.w3.org/1999/xlink" xml:space="preserve" xmlns:serif="http://www.serif.com/" style="fill-rule:evenodd;clip-rule:evenodd;stroke-linejoin:round;stroke-miterlimit:1.41421;">
    <g transform="matrix(1,0,0,1,-106.328,-131.724)">
        <g transform="matrix(1.47892,0,0,1.47892,-98.0112,-22.7267)">
            <path d="M153.74,114.684L153.74,110.858L156.858,110.858C157.388,110.858 157.839,111.044 158.21,111.415C158.586,111.791 158.775,112.242 158.775,112.767C158.775,113.297 158.586,113.748 158.21,114.119C157.839,114.495 157.388,114.684 156.858,114.684L153.74,114.684ZM153.74,106.19L156.5,106.19C156.94,106.19 157.317,106.349 157.629,106.667C157.948,106.98 158.107,107.356 158.107,107.796C158.107,108.242 157.948,108.621 157.629,108.934C157.317,109.246 156.94,109.403 156.5,109.403L153.74,109.403L153.74,106.19ZM158.655,109.928C159.27,109.318 159.57,108.592 159.554,107.749C159.538,106.916 159.233,106.208 158.639,105.625C158.046,105.037 157.332,104.742 156.5,104.742L152.396,104.742C152.327,104.742 152.293,104.777 152.293,104.846L152.293,116.028C152.293,116.097 152.327,116.131 152.396,116.131L156.786,116.131C157.709,116.131 158.504,115.816 159.172,115.185C159.846,114.554 160.196,113.782 160.222,112.87C160.238,112.261 160.103,111.693 159.816,111.168C159.535,110.654 159.148,110.241 158.655,109.928Z" style="fill:#fff;fill-rule:nonzero;"/>
            <path d="M164.127,109.745L164.127,106.182L166.966,106.182C167.459,106.182 167.881,106.354 168.231,106.699C168.581,107.049 168.756,107.47 168.756,107.963C168.756,108.451 168.581,108.87 168.231,109.22C167.881,109.57 167.459,109.745 166.966,109.745L164.127,109.745ZM167.674,111.097C168.385,110.927 168.976,110.567 169.448,110.015C169.925,109.448 170.177,108.796 170.203,108.059C170.23,107.147 169.925,106.365 169.289,105.713C168.652,105.06 167.878,104.734 166.966,104.734L162.783,104.734C162.714,104.734 162.68,104.769 162.68,104.838L162.68,116.004C162.68,116.073 162.714,116.107 162.783,116.107L164.024,116.107C164.093,116.107 164.127,116.073 164.127,116.004L164.127,111.192L166.091,111.192L166.083,111.2L168.756,116.075C168.772,116.113 168.801,116.131 168.843,116.131L170.259,116.131C170.301,116.131 170.33,116.115 170.346,116.083C170.368,116.046 170.37,116.012 170.354,115.98L167.674,111.097Z" style="fill:#fff;fill-rule:nonzero;"/>
            <path d="M175.023,110.294L176.462,106.834L177.894,110.294L175.023,110.294ZM175.906,104.718C175.863,104.718 175.831,104.74 175.81,104.782L171.158,115.988C171.142,116.02 171.144,116.052 171.165,116.083C171.187,116.115 171.216,116.131 171.253,116.131L172.525,116.131C172.573,116.131 172.605,116.11 172.621,116.067L174.442,111.677L178.474,111.677L180.296,116.067C180.312,116.11 180.343,116.131 180.391,116.131L181.664,116.131C181.701,116.131 181.73,116.115 181.751,116.083C181.772,116.052 181.775,116.02 181.759,115.988L177.106,104.782C177.091,104.74 177.059,104.718 177.011,104.718L175.906,104.718Z" style="fill:#fff;fill-rule:nonzero;"/>
            <path d="M190.285,104.734C190.216,104.734 190.181,104.769 190.181,104.838L190.181,112.934L184.073,104.782C184.052,104.75 184.026,104.734 183.994,104.734L183.469,104.734C183.4,104.734 183.365,104.769 183.365,104.838L183.365,116.028C183.365,116.097 183.4,116.131 183.469,116.131L184.646,116.131C184.715,116.131 184.749,116.097 184.749,116.028L184.749,107.987L190.817,116.091C190.839,116.118 190.865,116.131 190.897,116.131L191.462,116.131C191.531,116.131 191.565,116.097 191.565,116.028L191.565,104.838C191.565,104.769 191.531,104.734 191.462,104.734L190.285,104.734Z" style="fill:#fff;fill-rule:nonzero;"/>
            <path d="M195.852,114.676L195.852,106.174L198.11,106.174C199.287,106.174 200.29,106.587 201.117,107.415C201.949,108.247 202.365,109.249 202.365,110.421C202.365,111.593 201.949,112.595 201.117,113.427C200.29,114.259 199.287,114.676 198.11,114.676L195.852,114.676ZM194.5,104.718C194.431,104.718 194.396,104.753 194.396,104.822L194.396,116.028C194.396,116.097 194.431,116.131 194.5,116.131L198.015,116.131C199.584,116.131 200.936,115.588 202.071,114.501C203.206,113.414 203.789,112.091 203.821,110.532C203.853,108.936 203.306,107.568 202.182,106.428C201.064,105.288 199.706,104.718 198.11,104.718L194.5,104.718Z" style="fill:#fff;fill-rule:nonzero;"/>
            <path d="M207.296,109.061C207.296,108.992 207.262,108.957 207.193,108.957L206.04,108.957C205.971,108.957 205.936,108.992 205.936,109.061L205.936,116.028C205.936,116.097 205.971,116.131 206.04,116.131L207.193,116.131C207.262,116.131 207.296,116.097 207.296,116.028L207.296,111.717C207.344,111.33 207.514,111.007 207.805,110.747C208.097,110.482 208.439,110.349 208.831,110.349C208.905,110.349 208.977,110.355 209.046,110.365C209.11,110.376 209.149,110.349 209.165,110.286L209.396,109.172C209.406,109.103 209.377,109.063 209.308,109.053C209.155,109.026 208.996,109.013 208.831,109.013C208.28,109.013 207.768,109.162 207.296,109.458L207.296,109.061Z" style="fill:#fff;fill-rule:nonzero;"/>
        </g>
        <g transform="matrix(1,0,0,1,12.6769,-3.56537)">
            <path d="M110.95,137.844C110.95,137.166 110.68,136.517 110.201,136.037C109.722,135.558 109.072,135.289 108.395,135.289C105.121,135.289 99.479,135.289 96.206,135.289C95.528,135.289 94.878,135.558 94.399,136.037C93.92,136.517 93.651,137.166 93.651,137.844C93.651,141.118 93.651,146.759 93.651,150.033C93.651,150.71 93.92,151.36 94.399,151.839C94.878,152.318 95.528,152.588 96.206,152.588C99.479,152.588 105.121,152.588 108.395,152.588C109.072,152.588 109.722,152.318 110.201,151.839C110.68,151.36 110.95,150.71 110.95,150.033C110.95,146.759 110.95,141.118 110.95,137.844ZM99.132,148.164C99.132,147.888 99.036,147.654 98.845,147.463C98.654,147.272 98.42,147.176 98.144,147.176C97.868,147.176 97.634,147.272 97.443,147.463C97.252,147.654 97.156,147.888 97.156,148.164C97.156,148.441 97.252,148.674 97.443,148.866C97.634,149.057 97.868,149.152 98.144,149.152C98.42,149.152 98.654,149.057 98.845,148.866C99.036,148.674 99.132,148.441 99.132,148.164ZM103.2,140.208C103.301,140.214 103.402,140.224 103.502,140.24C103.71,140.278 103.906,140.331 104.092,140.4C104.48,140.532 104.82,140.734 105.112,141.005L105.176,141.053L105.343,141.22L105.439,141.332L105.486,141.396L105.526,141.451C105.659,141.616 105.757,141.778 105.821,141.937C105.97,142.267 106.004,142.583 105.925,142.886C105.887,143.04 105.821,143.191 105.725,143.34C105.64,143.489 105.524,143.637 105.375,143.786L105.359,143.802L105.327,143.834L105.255,143.906L105.215,143.929C105.2,143.945 105.181,143.959 105.16,143.969C105.117,144.012 105.048,144.06 104.953,144.113C104.809,144.192 104.655,144.251 104.49,144.288C104.177,144.346 103.792,144.323 103.335,144.216C103.043,144.147 102.591,144.009 101.981,143.802L101.582,143.659C101.524,143.643 101.473,143.656 101.431,143.698L101.128,144.001L99.283,145.83C99.214,145.899 99.214,145.968 99.283,146.037L100.279,147.033C100.343,147.097 100.409,147.094 100.478,147.025L101.949,145.539C102.347,145.672 102.692,145.767 102.984,145.826C103.298,145.895 103.59,145.937 103.861,145.953C104.196,145.969 104.514,145.948 104.817,145.89C105.146,145.815 105.46,145.693 105.757,145.523C105.922,145.433 106.06,145.342 106.172,145.252C106.198,145.226 106.233,145.196 106.275,145.164L106.371,145.069L106.443,145.013L106.53,144.925C106.759,144.686 106.947,144.439 107.096,144.184C107.282,143.892 107.412,143.587 107.486,143.268C107.571,142.928 107.593,142.583 107.55,142.232C107.508,141.903 107.412,141.584 107.263,141.276C107.146,141.011 106.982,140.745 106.769,140.479L106.698,140.392L106.634,140.312L106.474,140.137L106.323,139.985L106.243,139.906L106.164,139.826C105.707,139.422 105.186,139.12 104.602,138.918C104.32,138.827 104.031,138.761 103.733,138.718C103.579,138.692 103.431,138.676 103.287,138.671C103.256,138.671 103.21,138.671 103.148,138.671C103.145,138.671 103.141,138.671 103.138,138.67C103.129,138.67 103.118,138.669 103.107,138.669C103.068,138.667 103.03,138.682 103.002,138.71C102.975,138.738 102.961,138.777 102.964,138.816C102.987,139.116 103.04,139.799 103.062,140.082C103.068,140.153 103.127,140.208 103.199,140.208C103.199,140.208 103.2,140.208 103.2,140.208Z" style="fill:#fff;"/>
        </g>
    </g>
</svg>
