<?xml version="1.0" encoding="UTF-8" standalone="no"?><!DOCTYPE svg PUBLIC "-//W3C//DTD SVG 1.1//EN" "http://www.w3.org/Graphics/SVG/1.1/DTD/svg11.dtd"><svg width="100%" height="100%" viewBox="0 0 74 16" version="1.1" xmlns="http://www.w3.org/2000/svg" xmlns:xlink="http://www.w3.org/1999/xlink" xml:space="preserve" xmlns:serif="http://www.serif.com/" style="fill-rule:evenodd;clip-rule:evenodd;stroke-linejoin:round;stroke-miterlimit:1.41421;"><g id="scienta-white"><g id="logo"><path d="M23.548,14c-1.112,0 -2.277,-0.301 -2.966,-0.672l0.653,-1.486c0.495,0.301 1.536,0.619 2.26,0.619c1.041,0 1.73,-0.513 1.73,-1.309c0,-0.867 -0.724,-1.203 -1.695,-1.557c-1.271,-0.477 -2.701,-1.061 -2.701,-2.848c0,-1.574 1.218,-2.67 3.337,-2.67c1.147,0 2.1,0.282 2.771,0.672l-0.6,1.344c-0.424,-0.265 -1.271,-0.566 -1.96,-0.566c-1.006,0 -1.571,0.531 -1.571,1.22c0,0.867 0.706,1.168 1.642,1.522c1.324,0.495 2.789,1.044 2.789,2.901c0,1.716 -1.306,2.83 -3.689,2.83" style="fill:#fff;"/><path d="M32.899,14.313c-2.118,0 -4.183,-1.521 -4.183,-4.971c0,-3.449 2.065,-4.952 4.183,-4.952c1.041,0 1.853,0.265 2.436,0.654l-0.636,1.398c-0.388,-0.284 -0.97,-0.461 -1.553,-0.461c-1.271,0 -2.436,1.009 -2.436,3.344c0,2.335 1.2,3.361 2.436,3.361c0.583,0 1.165,-0.177 1.553,-0.46l0.636,1.433c-0.6,0.406 -1.395,0.654 -2.436,0.654" style="fill:#fff;"/><path d="M37.133,4.584l1.941,0l0,9.535l-1.941,0l0,-9.535Zm0.971,-1.733c-0.636,0 -1.148,-0.496 -1.148,-1.097c0,-0.601 0.512,-1.097 1.148,-1.097c0.635,0 1.147,0.496 1.147,1.097c0,0.601 -0.512,1.097 -1.147,1.097" style="fill:#fff;"/><path d="M45.153,5.805c-1.483,0 -2.454,1.132 -2.489,3.113l4.607,-0.637c-0.018,-1.663 -0.848,-2.476 -2.118,-2.476m3.953,3.502l-6.319,0.885c0.194,1.715 1.306,2.582 2.913,2.582c0.953,0 1.977,-0.23 2.63,-0.584l0.565,1.451c-0.742,0.389 -2.013,0.672 -3.319,0.672c-3.001,0 -4.677,-1.928 -4.677,-4.971c0,-2.918 1.624,-4.952 4.289,-4.952c2.471,0 3.936,1.627 3.936,4.192c0,0.23 0,0.477 -0.018,0.725" style="fill:#fff;"/><path d="M56.633,14.119l0,-6.368c0,-1.115 -0.671,-1.805 -1.995,-1.805c-0.706,0 -1.359,0.124 -1.747,0.283l0,7.89l-1.924,0l0,-9.057c0.953,-0.389 2.171,-0.672 3.654,-0.672c2.665,0 3.954,1.167 3.954,3.184l0,6.545l-1.942,0Z" style="fill:#fff;"/><path d="M63.866,14.242c-1.677,0 -2.612,-0.937 -2.612,-2.794l0,-5.413l-1.289,0l0,-1.451l1.289,0l0,-2.211l1.888,-0.584l0,2.795l1.924,0l0,1.451l-1.924,0l0,5.306c0,0.867 0.565,1.203 1.271,1.203c0.23,0 0.495,-0.053 0.653,-0.124l0,1.61c-0.229,0.106 -0.706,0.212 -1.2,0.212" style="fill:#fff;"/><path d="M72.164,9.325c-1.941,0.106 -3.883,0.265 -3.883,1.963c0,1.009 0.777,1.628 2.242,1.628c0.618,0 1.341,-0.107 1.641,-0.248l0,-3.343Zm-1.589,4.988c-2.735,0 -4.112,-1.114 -4.112,-2.989c0,-2.654 2.824,-3.131 5.701,-3.29l0,-0.602c0,-1.203 -0.794,-1.627 -2.012,-1.627c-0.9,0 -1.995,0.283 -2.63,0.583l-0.494,-1.326c0.759,-0.336 2.047,-0.672 3.318,-0.672c2.277,0 3.654,0.884 3.654,3.237l0,6.014c-0.688,0.371 -2.083,0.672 -3.425,0.672" style="fill:#fff;"/><path d="M7.639,16l7.375,-7.391c1.181,-1.184 1.214,-2.664 -0.214,-4.095c-0.771,-0.773 -1.608,-1.316 -2.199,-1.579l-7.598,7.615l-1.379,-1.382l8.403,-8.42c1.214,0.494 2.576,1.332 3.873,2.631c2.33,2.336 2.445,4.622 0.591,6.48l-6.121,6.141l-2.731,0Z" style="fill:#fff;"/><path d="M10.137,0l-7.375,7.391c-1.182,1.184 -1.214,2.664 0.214,4.095c0.771,0.773 1.608,1.316 2.199,1.579l7.598,-7.615l1.379,1.382l-8.403,8.42c-1.214,-0.494 -2.577,-1.332 -3.873,-2.631c-2.331,-2.336 -2.445,-4.622 -0.591,-6.48l6.12,-6.141l2.732,0Z" style="fill:#fff;"/></g></g></svg>